<svg width="300" height="90" viewBox="0 0 300 90" fill="none" xmlns="http://www.w3.org/2000/svg">
<rect x="2.5" y="2.5" width="295" height="85" rx="27.5" fill="white" stroke="black" stroke-width="5"/>
<path d="M107.961 62.5625C115.461 62.5625 120.477 59.0938 120.477 53.5156V53.4922C120.477 49.5781 117.969 47.3984 112.391 46.3672L107.703 45.5C105.359 45.0547 104.703 44.5391 104.703 43.625V43.6016C104.703 42.5 105.852 41.8438 107.609 41.8438C109.672 41.8438 110.82 42.9922 110.961 44.2109L110.984 44.4219H119.703V44.2578C119.703 39.5469 115.625 35.5625 107.609 35.5625C100.086 35.5625 95.5156 38.7734 95.5156 44.1406V44.1641C95.5156 48.1719 98.2344 50.9141 103.367 51.8516L108.055 52.7188C110.188 53.1172 110.961 53.6562 110.961 54.5938V54.6172C110.961 55.6484 109.812 56.2812 107.961 56.2812C105.805 56.2812 104.633 55.3906 104.258 53.8906L104.211 53.7031H94.9297L94.9531 53.9141C95.5391 59.0703 99.8047 62.5625 107.961 62.5625ZM135.102 62.5625C137.141 62.5625 138.5 62.3984 139.531 62.2109V55.5078C139.016 55.5781 138.617 55.625 137.891 55.625C135.922 55.625 134.984 54.7812 134.984 52.6953V43.0625H139.531V36.125H134.984V30.4531H125.375V36.125H121.953V43.0625H125.375V54.1719C125.375 60.2656 128.398 62.5625 135.102 62.5625ZM150.523 62.3281C153.852 62.3281 156.266 60.9453 157.719 58.4844H157.906V62H167.516V44.3984C167.516 39.1484 162.711 35.5625 155.516 35.5625C147.969 35.5625 143.492 39.0078 143.094 44.2812L143.07 44.5859H151.648L151.695 44.3516C151.906 43.2969 153.008 42.4297 154.977 42.4297C156.945 42.4297 157.906 43.3672 157.906 44.8672V45.9219L152.469 46.2734C145.578 46.7422 141.734 49.4844 141.734 54.4766V54.5C141.734 58.9531 145.297 62.3281 150.523 62.3281ZM151.109 53.7969V53.7734C151.109 52.4844 152.023 51.6875 154.062 51.5469L157.906 51.2656V52.9062C157.906 54.6172 156.336 55.8828 154.039 55.8828C152.258 55.8828 151.109 55.1562 151.109 53.7969ZM171.148 62H180.758V48.9219C180.758 45.3125 182.609 43.4844 186.219 43.4844C187.203 43.4844 188.188 43.6719 189.008 44.0234V35.9375C188.281 35.6797 187.508 35.5625 186.688 35.5625C183.594 35.5625 181.602 37.3906 180.945 40.7656H180.758V36.125H171.148V62ZM204.055 62.5625C206.094 62.5625 207.453 62.3984 208.484 62.2109V55.5078C207.969 55.5781 207.57 55.625 206.844 55.625C204.875 55.625 203.938 54.7812 203.938 52.6953V43.0625H208.484V36.125H203.938V30.4531H194.328V36.125H190.906V43.0625H194.328V54.1719C194.328 60.2656 197.352 62.5625 204.055 62.5625Z" fill="black"/>
</svg>
